<svg width="105" height="104" stroke="currentColor" width="24" height="24" viewBox="0 0 105 104" fill="none" xmlns="http://www.w3.org/2000/svg">
<path fill-rule="evenodd" clip-rule="evenodd" d="M52.3877 0C23.7746 0 0.579102 23.1955 0.579102 51.8086C0.579102 80.4217 23.7746 103.617 52.3877 103.617C81.0008 103.617 104.196 80.4217 104.196 51.8086C104.196 23.1955 81.0008 0 52.3877 0ZM12.1963 51.8086C12.1963 29.6115 30.1906 11.6172 52.3877 11.6172C74.5848 11.6172 92.5791 29.6115 92.5791 51.8086C92.5791 72.0662 77.592 88.8233 58.1009 91.597V82.7316L68.4167 78.9234C74.3785 76.7225 78.3379 71.0404 78.3379 64.6853V47.2295C78.3379 44.0215 75.7373 41.4209 72.5293 41.4209C69.3213 41.4209 66.7207 44.0215 66.7207 47.2295V64.6853C66.7207 66.176 65.7919 67.5088 64.3935 68.0251L58.1009 70.3481V24.3701C58.1009 21.1621 55.5003 18.5615 52.2923 18.5615C49.0842 18.5615 46.4836 21.1621 46.4836 24.3701V49.293L40.379 47.0395C38.9805 46.5232 38.0518 45.1903 38.0518 43.6996V36.1747C38.0518 32.9667 35.4512 30.3661 32.2432 30.3661C29.0352 30.3661 26.4346 32.9667 26.4346 36.1747V43.6996C26.4346 50.0547 30.3939 55.7369 36.3558 57.9378L46.4836 61.6766V91.5694C27.0856 88.7138 12.1963 72 12.1963 51.8086Z" fill="white"/>
    
</svg>
